<mxfile host="app.diagrams.net" agent="Mozilla/5.0 (Windows NT 10.0; Win64; x64) AppleWebKit/537.36 (KHTML, like Gecko) Chrome/130.0.0.0 Safari/537.36" version="24.8.6">
  <diagram id="R2lEEEUBdFMjLlhIrx00" name="Page-1">
    <mxGraphModel dx="1050" dy="522" grid="1" gridSize="10" guides="1" tooltips="1" connect="1" arrows="1" fold="1" page="1" pageScale="1" pageWidth="850" pageHeight="1100" math="0" shadow="0" extFonts="Permanent Marker^https://fonts.googleapis.com/css?family=Permanent+Marker">
      <root>
        <mxCell id="0" />
        <mxCell id="1" parent="0" />
        <mxCell id="qdB3Q8H_Rzq3y_8LXGV_-67" value="" style="ellipse;whiteSpace=wrap;html=1;align=center;strokeColor=#028090;fontColor=#E4FDE1;fillColor=#F45B69;" vertex="1" parent="1">
          <mxGeometry x="660" y="150" width="140" height="60" as="geometry" />
        </mxCell>
        <mxCell id="qdB3Q8H_Rzq3y_8LXGV_-17" value="구성&lt;br&gt;&lt;div&gt;하다&lt;/div&gt;" style="rhombus;whiteSpace=wrap;html=1;strokeColor=#028090;fontColor=#E4FDE1;fillColor=#F45B69;" vertex="1" parent="1">
          <mxGeometry x="360" y="40" width="120" height="80" as="geometry" />
        </mxCell>
        <mxCell id="qdB3Q8H_Rzq3y_8LXGV_-21" value="수행하다" style="shape=rhombus;double=1;perimeter=rhombusPerimeter;whiteSpace=wrap;html=1;align=center;strokeColor=#028090;fontColor=#E4FDE1;fillColor=#F45B69;" vertex="1" parent="1">
          <mxGeometry x="365" y="290" width="120" height="60" as="geometry" />
        </mxCell>
        <mxCell id="qdB3Q8H_Rzq3y_8LXGV_-26" value="" style="endArrow=none;html=1;rounded=0;strokeColor=#028090;fontColor=#E4FDE1;fillColor=#F45B69;entryX=0;entryY=0.5;entryDx=0;entryDy=0;exitX=1;exitY=0.5;exitDx=0;exitDy=0;" edge="1" parent="1" source="qdB3Q8H_Rzq3y_8LXGV_-72" target="qdB3Q8H_Rzq3y_8LXGV_-21">
          <mxGeometry relative="1" as="geometry">
            <mxPoint x="210" y="320" as="sourcePoint" />
            <mxPoint x="500" y="270" as="targetPoint" />
          </mxGeometry>
        </mxCell>
        <mxCell id="qdB3Q8H_Rzq3y_8LXGV_-27" value="" style="endArrow=none;html=1;rounded=0;strokeColor=#028090;fontColor=#E4FDE1;fillColor=#F45B69;entryX=0;entryY=0.5;entryDx=0;entryDy=0;exitX=1;exitY=0.5;exitDx=0;exitDy=0;shape=link;" edge="1" parent="1" source="qdB3Q8H_Rzq3y_8LXGV_-21" target="qdB3Q8H_Rzq3y_8LXGV_-33">
          <mxGeometry relative="1" as="geometry">
            <mxPoint x="300" y="410" as="sourcePoint" />
            <mxPoint x="640" y="320" as="targetPoint" />
          </mxGeometry>
        </mxCell>
        <mxCell id="qdB3Q8H_Rzq3y_8LXGV_-28" value="소속하다" style="shape=rhombus;double=1;perimeter=rhombusPerimeter;whiteSpace=wrap;html=1;align=center;strokeColor=#028090;fontColor=#E4FDE1;fillColor=#F45B69;" vertex="1" parent="1">
          <mxGeometry x="360" y="180" width="120" height="60" as="geometry" />
        </mxCell>
        <mxCell id="qdB3Q8H_Rzq3y_8LXGV_-29" value="" style="endArrow=none;html=1;rounded=0;strokeColor=#028090;fontColor=#E4FDE1;fillColor=#F45B69;exitX=0.572;exitY=0;exitDx=0;exitDy=0;entryX=0;entryY=0.5;entryDx=0;entryDy=0;shape=link;exitPerimeter=0;" edge="1" parent="1" source="qdB3Q8H_Rzq3y_8LXGV_-72" target="qdB3Q8H_Rzq3y_8LXGV_-28">
          <mxGeometry relative="1" as="geometry">
            <mxPoint x="160" y="300" as="sourcePoint" />
            <mxPoint x="500" y="270" as="targetPoint" />
          </mxGeometry>
        </mxCell>
        <mxCell id="qdB3Q8H_Rzq3y_8LXGV_-30" value="" style="endArrow=none;html=1;rounded=0;strokeColor=#028090;fontColor=#E4FDE1;fillColor=#F45B69;exitX=1;exitY=0.5;exitDx=0;exitDy=0;entryX=0.5;entryY=1;entryDx=0;entryDy=0;" edge="1" parent="1" source="qdB3Q8H_Rzq3y_8LXGV_-28" target="qdB3Q8H_Rzq3y_8LXGV_-38">
          <mxGeometry relative="1" as="geometry">
            <mxPoint x="520" y="240" as="sourcePoint" />
            <mxPoint x="684.45" y="110" as="targetPoint" />
          </mxGeometry>
        </mxCell>
        <mxCell id="qdB3Q8H_Rzq3y_8LXGV_-31" value="" style="endArrow=none;html=1;rounded=0;strokeColor=#028090;fontColor=#E4FDE1;fillColor=#F45B69;exitX=1;exitY=0.5;exitDx=0;exitDy=0;entryX=0;entryY=0.5;entryDx=0;entryDy=0;" edge="1" parent="1" source="qdB3Q8H_Rzq3y_8LXGV_-39" target="qdB3Q8H_Rzq3y_8LXGV_-17">
          <mxGeometry relative="1" as="geometry">
            <mxPoint x="231.53999999999996" y="82.00999999999999" as="sourcePoint" />
            <mxPoint x="420" y="130" as="targetPoint" />
          </mxGeometry>
        </mxCell>
        <mxCell id="qdB3Q8H_Rzq3y_8LXGV_-32" value="" style="endArrow=none;html=1;rounded=0;strokeColor=#028090;fontColor=#E4FDE1;fillColor=#F45B69;exitX=1;exitY=0.5;exitDx=0;exitDy=0;entryX=0;entryY=0.5;entryDx=0;entryDy=0;shape=link;" edge="1" parent="1" source="qdB3Q8H_Rzq3y_8LXGV_-17" target="qdB3Q8H_Rzq3y_8LXGV_-38">
          <mxGeometry relative="1" as="geometry">
            <mxPoint x="440" y="132" as="sourcePoint" />
            <mxPoint x="600" y="80" as="targetPoint" />
          </mxGeometry>
        </mxCell>
        <mxCell id="qdB3Q8H_Rzq3y_8LXGV_-33" value="프로젝트" style="shape=ext;margin=3;double=1;whiteSpace=wrap;html=1;align=center;strokeColor=#028090;fontColor=#E4FDE1;fillColor=#F45B69;" vertex="1" parent="1">
          <mxGeometry x="660" y="300" width="100" height="40" as="geometry" />
        </mxCell>
        <mxCell id="qdB3Q8H_Rzq3y_8LXGV_-38" value="부서" style="whiteSpace=wrap;html=1;align=center;strokeColor=#028090;fontColor=#E4FDE1;fillColor=#F45B69;" vertex="1" parent="1">
          <mxGeometry x="660" y="60" width="100" height="40" as="geometry" />
        </mxCell>
        <mxCell id="qdB3Q8H_Rzq3y_8LXGV_-39" value="기업" style="whiteSpace=wrap;html=1;align=center;strokeColor=#028090;fontColor=#E4FDE1;fillColor=#F45B69;" vertex="1" parent="1">
          <mxGeometry x="120" y="60" width="100" height="40" as="geometry" />
        </mxCell>
        <mxCell id="qdB3Q8H_Rzq3y_8LXGV_-40" value="" style="shape=table;startSize=0;container=1;collapsible=1;childLayout=tableLayout;fixedRows=1;rowLines=0;fontStyle=0;align=center;resizeLast=1;strokeColor=none;fillColor=none;collapsible=0;whiteSpace=wrap;html=1;fontColor=#E4FDE1;" vertex="1" parent="1">
          <mxGeometry x="240" y="290" width="180" height="30" as="geometry" />
        </mxCell>
        <mxCell id="qdB3Q8H_Rzq3y_8LXGV_-41" value="" style="shape=tableRow;horizontal=0;startSize=0;swimlaneHead=0;swimlaneBody=0;fillColor=none;collapsible=0;dropTarget=0;points=[[0,0.5],[1,0.5]];portConstraint=eastwest;top=0;left=0;right=0;bottom=0;strokeColor=#028090;fontColor=#E4FDE1;" vertex="1" parent="qdB3Q8H_Rzq3y_8LXGV_-40">
          <mxGeometry width="180" height="30" as="geometry" />
        </mxCell>
        <mxCell id="qdB3Q8H_Rzq3y_8LXGV_-42" value="" style="shape=partialRectangle;connectable=0;fillColor=none;top=0;left=0;bottom=0;right=0;editable=1;overflow=hidden;strokeColor=#028090;fontColor=#E4FDE1;" vertex="1" parent="qdB3Q8H_Rzq3y_8LXGV_-41">
          <mxGeometry width="30" height="30" as="geometry">
            <mxRectangle width="30" height="30" as="alternateBounds" />
          </mxGeometry>
        </mxCell>
        <mxCell id="qdB3Q8H_Rzq3y_8LXGV_-43" value="(0, 4)" style="shape=partialRectangle;connectable=0;fillColor=none;top=0;left=0;bottom=0;right=0;align=left;spacingLeft=6;overflow=hidden;strokeColor=#028090;fontColor=#0E0F0E;" vertex="1" parent="qdB3Q8H_Rzq3y_8LXGV_-41">
          <mxGeometry x="30" width="150" height="30" as="geometry">
            <mxRectangle width="150" height="30" as="alternateBounds" />
          </mxGeometry>
        </mxCell>
        <mxCell id="qdB3Q8H_Rzq3y_8LXGV_-44" value="" style="shape=table;startSize=0;container=1;collapsible=1;childLayout=tableLayout;fixedRows=1;rowLines=0;fontStyle=0;align=center;resizeLast=1;strokeColor=none;fillColor=none;collapsible=0;whiteSpace=wrap;html=1;fontColor=#E4FDE1;" vertex="1" parent="1">
          <mxGeometry x="520" y="290" width="180" height="30" as="geometry" />
        </mxCell>
        <mxCell id="qdB3Q8H_Rzq3y_8LXGV_-45" value="" style="shape=tableRow;horizontal=0;startSize=0;swimlaneHead=0;swimlaneBody=0;fillColor=none;collapsible=0;dropTarget=0;points=[[0,0.5],[1,0.5]];portConstraint=eastwest;top=0;left=0;right=0;bottom=0;strokeColor=#028090;fontColor=#E4FDE1;" vertex="1" parent="qdB3Q8H_Rzq3y_8LXGV_-44">
          <mxGeometry width="180" height="30" as="geometry" />
        </mxCell>
        <mxCell id="qdB3Q8H_Rzq3y_8LXGV_-46" value="" style="shape=partialRectangle;connectable=0;fillColor=none;top=0;left=0;bottom=0;right=0;editable=1;overflow=hidden;strokeColor=#028090;fontColor=#E4FDE1;" vertex="1" parent="qdB3Q8H_Rzq3y_8LXGV_-45">
          <mxGeometry width="30" height="30" as="geometry">
            <mxRectangle width="30" height="30" as="alternateBounds" />
          </mxGeometry>
        </mxCell>
        <mxCell id="qdB3Q8H_Rzq3y_8LXGV_-47" value="(1, 3)" style="shape=partialRectangle;connectable=0;fillColor=none;top=0;left=0;bottom=0;right=0;align=left;spacingLeft=6;overflow=hidden;strokeColor=#028090;fontColor=#0E0F0E;" vertex="1" parent="qdB3Q8H_Rzq3y_8LXGV_-45">
          <mxGeometry x="30" width="150" height="30" as="geometry">
            <mxRectangle width="150" height="30" as="alternateBounds" />
          </mxGeometry>
        </mxCell>
        <mxCell id="qdB3Q8H_Rzq3y_8LXGV_-53" value="사업자번호" style="ellipse;whiteSpace=wrap;html=1;align=center;strokeColor=#028090;fontColor=#E4FDE1;fillColor=#F45B69;fontStyle=4" vertex="1" parent="1">
          <mxGeometry x="230" y="130" width="100" height="40" as="geometry" />
        </mxCell>
        <mxCell id="qdB3Q8H_Rzq3y_8LXGV_-54" value="매출" style="ellipse;whiteSpace=wrap;html=1;align=center;strokeColor=#028090;fontColor=#E4FDE1;fillColor=#F45B69;" vertex="1" parent="1">
          <mxGeometry x="40" y="130" width="100" height="40" as="geometry" />
        </mxCell>
        <mxCell id="qdB3Q8H_Rzq3y_8LXGV_-55" value="부서명" style="ellipse;whiteSpace=wrap;html=1;align=center;strokeColor=#028090;fontColor=#E4FDE1;fillColor=#F45B69;" vertex="1" parent="1">
          <mxGeometry x="680" y="160" width="100" height="40" as="geometry" />
        </mxCell>
        <mxCell id="qdB3Q8H_Rzq3y_8LXGV_-57" value="인사팀" style="ellipse;whiteSpace=wrap;html=1;align=center;strokeColor=#028090;fontColor=#E4FDE1;fillColor=#F45B69;" vertex="1" parent="1">
          <mxGeometry x="850" y="120" width="100" height="40" as="geometry" />
        </mxCell>
        <mxCell id="qdB3Q8H_Rzq3y_8LXGV_-59" value="" style="endArrow=none;html=1;rounded=0;strokeColor=#028090;fontColor=#E4FDE1;fillColor=#F45B69;exitX=0.5;exitY=1;exitDx=0;exitDy=0;entryX=0.5;entryY=0;entryDx=0;entryDy=0;" edge="1" parent="1" source="qdB3Q8H_Rzq3y_8LXGV_-39" target="qdB3Q8H_Rzq3y_8LXGV_-54">
          <mxGeometry relative="1" as="geometry">
            <mxPoint x="230" y="90" as="sourcePoint" />
            <mxPoint x="370" y="90" as="targetPoint" />
          </mxGeometry>
        </mxCell>
        <mxCell id="qdB3Q8H_Rzq3y_8LXGV_-60" value="" style="endArrow=none;html=1;rounded=0;strokeColor=#028090;fontColor=#E4FDE1;fillColor=#F45B69;entryX=0.5;entryY=0;entryDx=0;entryDy=0;" edge="1" parent="1" target="qdB3Q8H_Rzq3y_8LXGV_-53">
          <mxGeometry relative="1" as="geometry">
            <mxPoint x="170" y="100" as="sourcePoint" />
            <mxPoint x="100" y="140" as="targetPoint" />
          </mxGeometry>
        </mxCell>
        <mxCell id="qdB3Q8H_Rzq3y_8LXGV_-62" value="" style="endArrow=none;html=1;rounded=0;strokeColor=#028090;fontColor=#E4FDE1;fillColor=#F45B69;exitX=0.5;exitY=1;exitDx=0;exitDy=0;entryX=0.5;entryY=0;entryDx=0;entryDy=0;" edge="1" parent="1" source="qdB3Q8H_Rzq3y_8LXGV_-38" target="qdB3Q8H_Rzq3y_8LXGV_-55">
          <mxGeometry relative="1" as="geometry">
            <mxPoint x="720" y="110" as="sourcePoint" />
            <mxPoint x="670" y="190" as="targetPoint" />
          </mxGeometry>
        </mxCell>
        <mxCell id="qdB3Q8H_Rzq3y_8LXGV_-64" value="개발팀" style="ellipse;whiteSpace=wrap;html=1;align=center;strokeColor=#028090;fontColor=#E4FDE1;fillColor=#F45B69;" vertex="1" parent="1">
          <mxGeometry x="860" y="180" width="100" height="40" as="geometry" />
        </mxCell>
        <mxCell id="qdB3Q8H_Rzq3y_8LXGV_-65" value="" style="endArrow=none;html=1;rounded=0;strokeColor=#028090;fontColor=#E4FDE1;fillColor=#F45B69;exitX=0;exitY=0.5;exitDx=0;exitDy=0;" edge="1" parent="1" source="qdB3Q8H_Rzq3y_8LXGV_-57">
          <mxGeometry relative="1" as="geometry">
            <mxPoint x="720" y="110" as="sourcePoint" />
            <mxPoint x="800" y="180" as="targetPoint" />
          </mxGeometry>
        </mxCell>
        <mxCell id="qdB3Q8H_Rzq3y_8LXGV_-66" value="" style="endArrow=none;html=1;rounded=0;strokeColor=#028090;fontColor=#E4FDE1;fillColor=#F45B69;exitX=0;exitY=0.5;exitDx=0;exitDy=0;entryX=1;entryY=0.5;entryDx=0;entryDy=0;" edge="1" parent="1" source="qdB3Q8H_Rzq3y_8LXGV_-64" target="qdB3Q8H_Rzq3y_8LXGV_-67">
          <mxGeometry relative="1" as="geometry">
            <mxPoint x="830" y="170" as="sourcePoint" />
            <mxPoint x="790" y="190" as="targetPoint" />
          </mxGeometry>
        </mxCell>
        <mxCell id="qdB3Q8H_Rzq3y_8LXGV_-68" value="사원증" style="ellipse;whiteSpace=wrap;html=1;align=center;strokeColor=#028090;fontColor=#E4FDE1;fillColor=#F45B69;fontStyle=4" vertex="1" parent="1">
          <mxGeometry x="90" y="380" width="100" height="40" as="geometry" />
        </mxCell>
        <mxCell id="qdB3Q8H_Rzq3y_8LXGV_-69" value="마감기한" style="ellipse;whiteSpace=wrap;html=1;align=center;strokeColor=#028090;fontColor=#E4FDE1;fillColor=#F45B69;" vertex="1" parent="1">
          <mxGeometry x="670" y="380" width="100" height="40" as="geometry" />
        </mxCell>
        <mxCell id="qdB3Q8H_Rzq3y_8LXGV_-70" value="" style="endArrow=none;html=1;rounded=0;strokeColor=#028090;fontColor=#E4FDE1;fillColor=#F45B69;exitX=0.5;exitY=0;exitDx=0;exitDy=0;entryX=0.5;entryY=1;entryDx=0;entryDy=0;" edge="1" parent="1" source="qdB3Q8H_Rzq3y_8LXGV_-68" target="qdB3Q8H_Rzq3y_8LXGV_-72">
          <mxGeometry relative="1" as="geometry">
            <mxPoint x="165" y="500" as="sourcePoint" />
            <mxPoint x="160" y="340" as="targetPoint" />
          </mxGeometry>
        </mxCell>
        <mxCell id="qdB3Q8H_Rzq3y_8LXGV_-71" value="" style="endArrow=none;html=1;rounded=0;strokeColor=#028090;fontColor=#E4FDE1;fillColor=#F45B69;exitX=0.5;exitY=0;exitDx=0;exitDy=0;entryX=0.5;entryY=1;entryDx=0;entryDy=0;" edge="1" parent="1" source="qdB3Q8H_Rzq3y_8LXGV_-69" target="qdB3Q8H_Rzq3y_8LXGV_-33">
          <mxGeometry relative="1" as="geometry">
            <mxPoint x="150" y="390" as="sourcePoint" />
            <mxPoint x="170" y="350" as="targetPoint" />
          </mxGeometry>
        </mxCell>
        <mxCell id="qdB3Q8H_Rzq3y_8LXGV_-72" value="직원" style="whiteSpace=wrap;html=1;align=center;strokeColor=#028090;fontColor=#E4FDE1;fillColor=#F45B69;" vertex="1" parent="1">
          <mxGeometry x="100" y="290" width="100" height="40" as="geometry" />
        </mxCell>
        <mxCell id="qdB3Q8H_Rzq3y_8LXGV_-73" value="부서코드" style="ellipse;whiteSpace=wrap;html=1;align=center;strokeColor=#028090;fontColor=#E4FDE1;fillColor=#F45B69;fontStyle=4" vertex="1" parent="1">
          <mxGeometry x="740" y="110" width="100" height="40" as="geometry" />
        </mxCell>
        <mxCell id="qdB3Q8H_Rzq3y_8LXGV_-74" value="" style="endArrow=none;html=1;rounded=0;strokeColor=#028090;fontColor=#E4FDE1;fillColor=#F45B69;exitX=0.5;exitY=1;exitDx=0;exitDy=0;entryX=0.44;entryY=0.03;entryDx=0;entryDy=0;entryPerimeter=0;" edge="1" parent="1" source="qdB3Q8H_Rzq3y_8LXGV_-38" target="qdB3Q8H_Rzq3y_8LXGV_-73">
          <mxGeometry relative="1" as="geometry">
            <mxPoint x="720" y="110" as="sourcePoint" />
            <mxPoint x="740" y="170" as="targetPoint" />
          </mxGeometry>
        </mxCell>
      </root>
    </mxGraphModel>
  </diagram>
</mxfile>
